<svg height="511pt" viewBox="0 0 511 511.99876" width="511pt" xmlns="http://www.w3.org/2000/svg"><path d="m256.480469 177.136719-68.582031 42.855469 68.582031 42.855468 68.585937-42.855468zm0 0" fill="#bde9ff"/><path d="m324.976562 291.988281-68.496093 42.949219v-72.089844l68.496093-42.855468zm0 0" fill="#8dd0f0"/><path d="m187.898438 291.988281 68.582031 42.949219v-72.089844l-68.582031-42.855468zm0 0" fill="#dbf3ff"/><path d="m76.582031 7.554688-68.585937 42.855468 68.585937 42.855469 68.585938-42.855469zm0 0" fill="#ffedb3"/><path d="m145.078125 122.40625-68.496094 42.949219v-72.089844l68.496094-42.855469zm0 0" fill="#ffc745"/><path d="m7.996094 122.40625 68.585937 42.949219v-72.089844l-68.585937-42.855469zm0 0" fill="#ffdb66"/><path d="m436.382812 7.554688-68.585937 42.855468 68.585937 42.855469 68.582032-42.855469zm0 0" fill="#bde9ff"/><path d="m504.875 122.40625-68.492188 42.949219v-72.089844l68.492188-42.855469zm0 0" fill="#8dd0f0"/><path d="m367.796875 122.40625 68.585937 42.949219v-72.089844l-68.585937-42.855469zm0 0" fill="#dbf3ff"/><path d="m76.582031 346.71875-68.585937 42.855469 68.585937 42.855469 68.585938-42.855469zm0 0" fill="#bde9ff"/><path d="m145.078125 461.570312-68.496094 42.953126v-72.09375l68.496094-42.855469zm0 0" fill="#8dd0f0"/><path d="m7.996094 461.570312 68.585937 42.953126v-72.09375l-68.585937-42.855469zm0 0" fill="#dbf3ff"/><path d="m436.382812 346.71875-68.585937 42.855469 68.585937 42.855469 68.582032-42.855469zm0 0" fill="#ffedb3"/><path d="m504.875 461.570312-68.492188 42.953126v-72.09375l68.492188-42.855469zm0 0" fill="#ffc745"/><path d="m367.796875 461.570312 68.585937 42.953126v-72.09375l-68.585937-42.855469zm0 0" fill="#ffdb66"/><path d="m252.671875 341.386719c2.378906 1.402343 5.449219 1.375 7.792969-.09375l68.496094-42.953125c2.1875-1.371094 3.515624-3.769532 3.515624-6.351563v-70.890625c.054688-.363281.089844-.730468.089844-1.105468 0-2.585938-1.332031-4.988282-3.523437-6.359376l-68.585938-42.855468c-2.429687-1.519532-5.515625-1.519532-7.949219 0l-68.585937 42.855468c-2.164063 1.355469-3.523437 3.824219-3.523437 6.375v71.980469c0 2.582031 1.332031 4.984375 3.519531 6.355469l68.585937 42.953125c.054688.03125.113282.054687.167969.089844zm11.308594-20.003907v-54.378906l53.496093-33.425781v54.257813zm-7.5-135.402343 54.394531 33.988281-54.394531 34.03125-54.429688-34.007812zm-61.082031 47.542969 53.585937 33.480468v54.390625l-53.585937-33.558593zm0 0"/><path d="m4.019531 128.761719 68.585938 42.953125c2.390625 1.496094 5.570312 1.492187 7.960937-.003906l68.496094-42.953126c2.1875-1.371093 3.515625-3.769531 3.515625-6.351562v-70.898438c.054687-.359374.089844-.726562.089844-1.097656 0-2.585937-1.332031-4.992187-3.523438-6.359375l-68.585937-42.855469c-8.203125-5.125-16.152344 7.59375-7.949219 12.71875l58.367187 36.472657-54.394531 34.035156-54.429687-34.011719 25.316406-15.820312c8.207031-5.125.257812-17.847656-7.945312-12.722656l-35.5 22.183593c-2.15625 1.347657-3.523438 3.816407-3.523438 6.359375v71.996094c0 2.582031 1.328125 4.984375 3.519531 6.355469zm11.476563-64.824219 1.191406.746094 52.394531 32.738281v54.390625l-53.585937-33.558594zm68.585937 87.863281v-54.378906l53.496094-33.425781v54.261718zm0 0"/><path d="m363.816406 128.761719 68.585938 42.953125c2.386718 1.5 5.574218 1.488281 7.960937-.003906l68.496094-42.953126c2.1875-1.371093 3.515625-3.769531 3.515625-6.351562v-70.890625c.054688-.363281.089844-.730469.089844-1.105469 0-2.585937-1.332032-4.988281-3.523438-6.359375l-68.585937-42.855469c-2.429688-1.519531-5.515625-1.519531-7.949219 0l-68.582031 42.855469c-2.160157 1.347657-3.527344 3.816407-3.527344 6.359375v71.996094c0 2.582031 1.332031 4.984375 3.519531 6.355469zm11.480469-64.824219 53.585937 33.484375v54.390625l-53.585937-33.558594zm68.582031 87.863281v-54.378906l53.5-33.425781v54.261718zm-7.496094-135.402343 54.394532 33.988281-54.398438 34.035156-54.429687-34.011719zm0 0"/><path d="m149.144531 383.214844-68.585937-42.855469c-2.433594-1.519531-5.519532-1.519531-7.949219 0l-68.585937 42.855469c-2.15625 1.347656-3.523438 3.8125-3.523438 6.359375v71.992187c0 2.585938 1.328125 4.988282 3.519531 6.359375l68.585938 42.953125c2.390625 1.496094 5.570312 1.492188 7.964843-.003906l68.496094-42.953125c2.1875-1.371094 3.515625-3.773437 3.515625-6.355469v-70.894531c.050781-.359375.085938-.726563.085938-1.097656 0-2.585938-1.332031-4.988281-3.523438-6.359375zm-72.5625-27.652344 54.394531 33.988281-54.394531 34.035157-54.429687-34.011719zm-61.085937 47.539062 1.191406.746094 52.394531 32.738282v54.390624l-53.585937-33.5625zm68.585937 87.867188v-54.382812l53.496094-33.425782v54.261719zm0 0"/><path d="m508.941406 383.214844-68.585937-42.855469c-2.433594-1.519531-5.519531-1.519531-7.949219 0l-68.585938 42.855469c-2.15625 1.347656-3.523437 3.8125-3.523437 6.359375v71.992187c0 2.585938 1.332031 4.988282 3.519531 6.359375l68.585938 42.953125c4.902344 3.054688 11.476562-.535156 11.476562-6.355468v-67.9375l53.5-33.425782v54.257813l-28.894531 18.121093c-3.511719 2.199219-4.570313 6.828126-2.367187 10.335938 2.199218 3.511719 6.828124 4.570312 10.335937 2.371094l32.40625-20.324219c2.1875-1.371094 3.515625-3.773437 3.515625-6.355469v-70.886718c.054688-.363282.089844-.734376.089844-1.105469 0-2.585938-1.332032-4.988281-3.523438-6.359375zm-72.558594-27.652344 54.394532 33.988281-54.398438 34.035157-54.429687-34.011719zm-61.085937 47.539062 53.585937 33.484376v54.390624l-53.585937-33.5625zm0 0"/><path d="m189.234375 90.046875h133.992187c9.675782 0 9.675782-14.996094 0-14.996094h-133.992187c-9.671875 0-9.671875 14.996094 0 14.996094zm0 0"/><path d="m323.726562 422.027344h-133.992187c-9.671875 0-9.671875 15 0 15h133.992187c9.675782 0 9.675782-15 0-15zm0 0"/><path d="m428.472656 211.171875v89.402344c0 4.140625 3.355469 7.496093 7.496094 7.496093 4.144531 0 7.5-3.355468 7.5-7.496093v-89.402344c0-9.675781-14.996094-9.675781-14.996094 0zm0 0"/><path d="m69.492188 211.503906v89.402344c0 4.140625 3.359374 7.5 7.5 7.5 4.144531 0 7.5-3.359375 7.5-7.5v-89.402344c0-9.675781-15-9.675781-15 0zm0 0"/><path d="m362.738281 156.109375-33.796875 22.359375c-6.097656 4.03125-3.054687 13.753906 4.144532 13.753906 1.417968 0 2.855468-.402344 4.128906-1.246094l33.796875-22.359374c8.066406-5.335938-.207031-17.847657-8.273438-12.507813zm0 0"/><path d="m175.75 190.976562c1.273438.84375 2.707031 1.246094 4.128906 1.246094 7.195313 0 10.242188-9.722656 4.144532-13.753906l-33.796876-22.359375c-8.066406-5.339844-16.339843 7.171875-8.273437 12.507813zm0 0"/><path d="m146.097656 362.210938c1.421875 0 2.855469-.402344 4.128906-1.246094l33.796876-22.355469c8.070312-5.335937-.207032-17.851563-8.273438-12.511719l-33.796875 22.359375c-6.097656 4.03125-3.050781 13.753907 4.144531 13.753907zm0 0"/><path d="m328.941406 338.605469 33.796875 22.359375c1.273438.84375 2.707031 1.246094 4.128907 1.246094 7.195312 0 10.242187-9.722657 4.144531-13.753907l-33.796875-22.359375c-8.066406-5.339844-16.34375 7.171875-8.273438 12.507813zm0 0"/></svg>